<?xml version="1.0" encoding="UTF-8" standalone="no"?>
<!-- Created with Inkscape (http://www.inkscape.org/) -->

<svg
   xmlns:dc="http://purl.org/dc/elements/1.1/"
   xmlns:cc="http://creativecommons.org/ns#"
   xmlns:rdf="http://www.w3.org/1999/02/22-rdf-syntax-ns#"
   xmlns:svg="http://www.w3.org/2000/svg"
   xmlns="http://www.w3.org/2000/svg"
   xmlns:sodipodi="http://sodipodi.sourceforge.net/DTD/sodipodi-0.dtd"
   xmlns:inkscape="http://www.inkscape.org/namespaces/inkscape"
   width="210mm"
   height="297mm"
   viewBox="0 0 210 297"
   version="1.1"
   id="svg8"
   inkscape:version="0.92.1 r15371"
   sodipodi:docname="shapes.svg">
  <defs
     id="defs2" />
  <sodipodi:namedview
     id="base"
     pagecolor="#ffffff"
     bordercolor="#666666"
     borderopacity="1.0"
     inkscape:pageopacity="0.0"
     inkscape:pageshadow="2"
     inkscape:zoom="2.8"
     inkscape:cx="388.36029"
     inkscape:cy="289.22952"
     inkscape:document-units="mm"
     inkscape:current-layer="layer1"
     showgrid="false"
     inkscape:window-width="1881"
     inkscape:window-height="1056"
     inkscape:window-x="39"
     inkscape:window-y="24"
     inkscape:window-maximized="1"
     inkscape:measure-start="364.643,301.518"
     inkscape:measure-end="376.205,301.518"
     inkscape:snap-intersection-paths="true"
     inkscape:snap-bbox="true"
     inkscape:bbox-paths="true"
     inkscape:bbox-nodes="true"
     inkscape:snap-bbox-edge-midpoints="true"
     inkscape:snap-global="false" />
  <metadata
     id="metadata5">
    <rdf:RDF>
      <cc:Work
         rdf:about="">
        <dc:format>image/svg+xml</dc:format>
        <dc:type
           rdf:resource="http://purl.org/dc/dcmitype/StillImage" />
        <dc:title />
      </cc:Work>
    </rdf:RDF>
  </metadata>
  <g
     inkscape:label="Layer 1"
     inkscape:groupmode="layer"
     id="layer1">
    <rect
       style="opacity:1;fill:#008000;fill-opacity:0.66666667;stroke:none;stroke-width:0.65625006;stroke-linecap:round;stroke-linejoin:round;stroke-miterlimit:4;stroke-dasharray:none;stroke-dashoffset:0;stroke-opacity:1"
       id="rect4504"
       width="104.22375"
       height="15"
       x="48.402069"
       y="161.97908"
       rx="2"
       ry="2" />
    <g
       id="g4565"
       transform="translate(4.5910449e-5,89.958336)">
      <g
         transform="translate(62.341566,5.1862564)"
         id="g4551">
        <circle
           style="opacity:1;fill:#0000ff;fill-opacity:0.66666667;stroke:none;stroke-width:0.65625;stroke-linecap:round;stroke-linejoin:round;stroke-miterlimit:4;stroke-dasharray:none;stroke-dashoffset:0;stroke-opacity:1"
           id="circle4547"
           cx="43.728584"
           cy="74.334465"
           r="1.5" />
        <circle
           cy="74.334465"
           cx="43.728584"
           id="circle4549"
           style="opacity:1;fill:#0000ff;fill-opacity:0.66666667;stroke:none;stroke-width:0.65625006;stroke-linecap:round;stroke-linejoin:round;stroke-miterlimit:4;stroke-dasharray:none;stroke-dashoffset:0;stroke-opacity:1"
           r="2.5" />
      </g>
      <g
         id="g4557"
         transform="translate(51.229059,5.1862564)">
        <circle
           r="1.5"
           cy="74.334465"
           cx="43.728584"
           id="circle4553"
           style="opacity:1;fill:#0000ff;fill-opacity:0.66666667;stroke:none;stroke-width:0.65625;stroke-linecap:round;stroke-linejoin:round;stroke-miterlimit:4;stroke-dasharray:none;stroke-dashoffset:0;stroke-opacity:1" />
        <circle
           r="2.5"
           style="opacity:1;fill:#0000ff;fill-opacity:0.66666667;stroke:none;stroke-width:0.65625006;stroke-linecap:round;stroke-linejoin:round;stroke-miterlimit:4;stroke-dasharray:none;stroke-dashoffset:0;stroke-opacity:1"
           id="circle4555"
           cx="43.728584"
           cy="74.334465" />
      </g>
    </g>
    <g
       id="g4728"
       transform="translate(95.34165,64.859473)"
       style="opacity:0.49300005">
      <circle
         r="40"
         style="opacity:1;fill:#ff0000;fill-opacity:0.66666667;stroke:none;stroke-width:0.65625012;stroke-linecap:round;stroke-linejoin:round;stroke-miterlimit:4;stroke-dasharray:none;stroke-dashoffset:0;stroke-opacity:1"
         id="circle4704"
         cx="8.2624817"
         cy="44.082035" />
      <circle
         r="8"
         cy="44.082035"
         cx="8.2624817"
         id="circle4706"
         style="opacity:1;fill:#ff0000;fill-opacity:0.66666667;stroke:none;stroke-width:0.65625006;stroke-linecap:round;stroke-linejoin:round;stroke-miterlimit:4;stroke-dasharray:none;stroke-dashoffset:0;stroke-opacity:1" />
    </g>
    <g
       id="g4760"
       style="opacity:0.49300005"
       transform="translate(25.258314,224.90119)">
      <circle
         r="36"
         cy="-115.95964"
         cx="78.345818"
         id="circle4750"
         style="opacity:1;fill:#800080;fill-opacity:0.66666667;stroke:none;stroke-width:0.65625012;stroke-linecap:round;stroke-linejoin:round;stroke-miterlimit:4;stroke-dasharray:none;stroke-dashoffset:0;stroke-opacity:1" />
      <circle
         r="13"
         style="opacity:1;fill:#800080;fill-opacity:0.66666667;stroke:none;stroke-width:0.65625006;stroke-linecap:round;stroke-linejoin:round;stroke-miterlimit:4;stroke-dasharray:none;stroke-dashoffset:0;stroke-opacity:1"
         id="circle4752"
         cx="78.345818"
         cy="-115.95964" />
    </g>
    <path
       style="opacity:0.49300005;fill:#aa4400;fill-opacity:0.66666667;stroke:none;stroke-width:0.65625;stroke-linecap:round;stroke-linejoin:round;stroke-miterlimit:4;stroke-dasharray:none;stroke-dashoffset:0;stroke-opacity:1"
       d="m 62.507507,94.904397 c 64.453733,0.490278 77.192633,14.540893 77.192633,35.030163 v 20.22172 c 0,0.54999 -0.29214,0.86936 -0.88838,0.86936 H 62.307209 c -1.273658,0.0275 -1.982193,-0.72284 -1.982193,-1.93581 V 96.922136 c 0,-1.358273 0.899264,-2.017739 2.182491,-2.017739 z"
       id="rect4580"
       inkscape:connector-curvature="0"
       sodipodi:nodetypes="cccccccc" />
    <rect
       style="opacity:1;fill:#008000;fill-opacity:0.66666667;stroke:none;stroke-width:0.65625006;stroke-linecap:round;stroke-linejoin:round;stroke-miterlimit:4;stroke-dasharray:none;stroke-dashoffset:0;stroke-opacity:1"
       id="rect4597"
       width="2"
       height="15"
       x="-62.325016"
       y="-115.46535"
       transform="scale(-1)" />
    <rect
       transform="scale(-1)"
       y="-145.46536"
       x="-62.325016"
       height="15"
       width="2"
       id="rect4607"
       style="opacity:1;fill:#008000;fill-opacity:0.66666667;stroke:none;stroke-width:0.65625006;stroke-linecap:round;stroke-linejoin:round;stroke-miterlimit:4;stroke-dasharray:none;stroke-dashoffset:0;stroke-opacity:1" />
    <rect
       transform="rotate(-90)"
       y="110.60564"
       x="-151.02635"
       height="15"
       width="2"
       id="rect4624"
       style="opacity:1;fill:#008000;fill-opacity:0.66666667;stroke:none;stroke-width:0.65625006;stroke-linecap:round;stroke-linejoin:round;stroke-miterlimit:4;stroke-dasharray:none;stroke-dashoffset:0;stroke-opacity:1" />
    <rect
       style="opacity:1;fill:#008000;fill-opacity:0.66666667;stroke:none;stroke-width:0.65625006;stroke-linecap:round;stroke-linejoin:round;stroke-miterlimit:4;stroke-dasharray:none;stroke-dashoffset:0;stroke-opacity:1"
       id="rect4626"
       width="2"
       height="15"
       x="-151.02635"
       y="70.022324"
       transform="rotate(-90)" />
    <rect
       y="-146.89966"
       x="-139.70013"
       height="15"
       width="2"
       id="rect4646"
       style="opacity:1;fill:#008000;fill-opacity:0.66666667;stroke:none;stroke-width:0.65625006;stroke-linecap:round;stroke-linejoin:round;stroke-miterlimit:4;stroke-dasharray:none;stroke-dashoffset:0;stroke-opacity:1"
       transform="scale(-1)" />
    <g
       id="g4736"
       style="opacity:0.49300005"
       transform="translate(102.34164,147.81784)">
      <circle
         r="33"
         cy="-38.876301"
         cx="1.2624817"
         id="circle4710"
         style="opacity:1;fill:#d45500;fill-opacity:0.66666667;stroke:none;stroke-width:0.65625012;stroke-linecap:round;stroke-linejoin:round;stroke-miterlimit:4;stroke-dasharray:none;stroke-dashoffset:0;stroke-opacity:1" />
      <circle
         r="10.5"
         style="opacity:1;fill:#d45500;fill-opacity:0.66666667;stroke:none;stroke-width:0.65625006;stroke-linecap:round;stroke-linejoin:round;stroke-miterlimit:4;stroke-dasharray:none;stroke-dashoffset:0;stroke-opacity:1"
         id="circle4712"
         cx="1.2624817"
         cy="-38.876301" />
    </g>
    <g
       id="g4748"
       style="opacity:0.49300005"
       transform="translate(32.258314,143.81783)">
      <circle
         r="29"
         style="opacity:1;fill:#ff00ff;fill-opacity:0.66666667;stroke:none;stroke-width:0.65625012;stroke-linecap:round;stroke-linejoin:round;stroke-miterlimit:4;stroke-dasharray:none;stroke-dashoffset:0;stroke-opacity:1"
         id="circle4730"
         cx="71.345818"
         cy="-34.876301" />
      <circle
         r="10"
         cy="-34.876301"
         cx="71.345818"
         id="circle4732"
         style="opacity:1;fill:#ff00ff;fill-opacity:0.66666667;stroke:none;stroke-width:0.65625006;stroke-linecap:round;stroke-linejoin:round;stroke-miterlimit:4;stroke-dasharray:none;stroke-dashoffset:0;stroke-opacity:1" />
    </g>
    <g
       id="g4744"
       style="opacity:0.49300005"
       transform="translate(-44.32501,146.31783)">
      <circle
         cy="-37.376301"
         cx="147.92914"
         id="circle4738"
         style="opacity:1;fill:#0000ff;fill-opacity:0.66666667;stroke:none;stroke-width:0.65625012;stroke-linecap:round;stroke-linejoin:round;stroke-miterlimit:4;stroke-dasharray:none;stroke-dashoffset:0;stroke-opacity:1"
         r="31.5" />
      <circle
         style="opacity:1;fill:#0000ff;fill-opacity:0.66666667;stroke:none;stroke-width:0.65625006;stroke-linecap:round;stroke-linejoin:round;stroke-miterlimit:4;stroke-dasharray:none;stroke-dashoffset:0;stroke-opacity:1"
         id="circle4740"
         cx="147.92914"
         cy="-37.376301"
         r="12.5" />
    </g>
    <rect
       transform="scale(-1)"
       style="opacity:1;fill:#008000;fill-opacity:0.66666667;stroke:none;stroke-width:0.65625006;stroke-linecap:round;stroke-linejoin:round;stroke-miterlimit:4;stroke-dasharray:none;stroke-dashoffset:0;stroke-opacity:1"
       id="rect4678"
       width="2"
       height="73.799294"
       x="-104.60413"
       y="-142.45557" />
    <rect
       y="-137.16389"
       x="-111.48328"
       height="73.799294"
       width="2"
       id="rect4782"
       style="opacity:1;fill:#008000;fill-opacity:0.66666667;stroke:none;stroke-width:0.65625006;stroke-linecap:round;stroke-linejoin:round;stroke-miterlimit:4;stroke-dasharray:none;stroke-dashoffset:0;stroke-opacity:1"
       transform="scale(-1)" />
    <rect
       transform="scale(-1)"
       style="opacity:1;fill:#008000;fill-opacity:0.66666667;stroke:none;stroke-width:0.65625006;stroke-linecap:round;stroke-linejoin:round;stroke-miterlimit:4;stroke-dasharray:none;stroke-dashoffset:0;stroke-opacity:1"
       id="rect4784"
       width="2"
       height="73.799294"
       x="-118.36243"
       y="-131.87222" />
    <rect
       y="-142.45557"
       x="-97.724937"
       height="73.799294"
       width="2"
       id="rect4786"
       style="opacity:1;fill:#008000;fill-opacity:0.66666667;stroke:none;stroke-width:0.65625006;stroke-linecap:round;stroke-linejoin:round;stroke-miterlimit:4;stroke-dasharray:none;stroke-dashoffset:0;stroke-opacity:1"
       transform="scale(-1)" />
    <rect
       transform="scale(-1)"
       style="opacity:1;fill:#008000;fill-opacity:0.66666667;stroke:none;stroke-width:0.65625006;stroke-linecap:round;stroke-linejoin:round;stroke-miterlimit:4;stroke-dasharray:none;stroke-dashoffset:0;stroke-opacity:1"
       id="rect4788"
       width="2"
       height="73.799294"
       x="-90.845772"
       y="-137.16389" />
    <rect
       y="-131.87222"
       x="-83.966606"
       height="73.799294"
       width="2"
       id="rect4790"
       style="opacity:1;fill:#008000;fill-opacity:0.66666667;stroke:none;stroke-width:0.65625006;stroke-linecap:round;stroke-linejoin:round;stroke-miterlimit:4;stroke-dasharray:none;stroke-dashoffset:0;stroke-opacity:1"
       transform="scale(-1)" />
    <rect
       style="opacity:1;fill:#ff0000;fill-opacity:0.66666667;stroke:none;stroke-width:0.65625006;stroke-linecap:round;stroke-linejoin:round;stroke-miterlimit:4;stroke-dasharray:none;stroke-dashoffset:0;stroke-opacity:1"
       id="rect4569"
       width="20"
       height="5"
       x="69.013939"
       y="166.97908"
       rx="2.0552456"
       ry="2.0552456" />
    <rect
       ry="2.0552456"
       rx="2.0552456"
       y="166.97908"
       x="112.01394"
       height="5"
       width="20"
       id="rect4573"
       style="opacity:1;fill:#ff0000;fill-opacity:0.66666667;stroke:none;stroke-width:0.65625006;stroke-linecap:round;stroke-linejoin:round;stroke-miterlimit:4;stroke-dasharray:none;stroke-dashoffset:0;stroke-opacity:1" />
    <rect
       y="159.47906"
       x="99.513947"
       height="20"
       width="2"
       id="rect4514"
       style="opacity:1;fill:#ff0000;fill-opacity:0.66666667;stroke:none;stroke-width:0.65625;stroke-linecap:round;stroke-linejoin:round;stroke-miterlimit:4;stroke-dasharray:none;stroke-dashoffset:0;stroke-opacity:1" />
    <rect
       style="opacity:1;fill:#ff0000;fill-opacity:0.66666667;stroke:none;stroke-width:0.65625;stroke-linecap:round;stroke-linejoin:round;stroke-miterlimit:4;stroke-dasharray:none;stroke-dashoffset:0;stroke-opacity:1"
       id="rect4518"
       width="2"
       height="20"
       x="56.513931"
       y="159.47906" />
    <rect
       y="159.47906"
       x="142.51395"
       height="20"
       width="2"
       id="rect4792"
       style="opacity:1;fill:#ff0000;fill-opacity:0.66666667;stroke:none;stroke-width:0.65625;stroke-linecap:round;stroke-linejoin:round;stroke-miterlimit:4;stroke-dasharray:none;stroke-dashoffset:0;stroke-opacity:1" />
    <path
       sodipodi:nodetypes="cccccccc"
       inkscape:connector-curvature="0"
       id="path4829"
       d="m 157.75754,94.904397 c 64.45376,0.490278 77.19266,14.540893 77.19266,35.030163 v 20.22172 c 0,0.54999 -0.29214,0.86936 -0.88838,0.86936 h -76.50458 c -1.27365,0.0275 -1.98219,-0.72284 -1.98219,-1.93581 V 96.922136 c 0,-1.358273 0.89927,-2.017739 2.18249,-2.017739 z"
       style="opacity:0.49300005;fill:#aa4400;fill-opacity:0.66666667;stroke:none;stroke-width:0.65625;stroke-linecap:round;stroke-linejoin:round;stroke-miterlimit:4;stroke-dasharray:none;stroke-dashoffset:0;stroke-opacity:1" />
    <rect
       transform="scale(-1)"
       y="-115.46535"
       x="-157.67503"
       height="15"
       width="2.0999999"
       id="rect4831"
       style="opacity:1;fill:#008000;fill-opacity:0.66666667;stroke:none;stroke-width:0.65625006;stroke-linecap:round;stroke-linejoin:round;stroke-miterlimit:4;stroke-dasharray:none;stroke-dashoffset:0;stroke-opacity:1" />
    <rect
       style="opacity:1;fill:#008000;fill-opacity:0.66666667;stroke:none;stroke-width:0.65625006;stroke-linecap:round;stroke-linejoin:round;stroke-miterlimit:4;stroke-dasharray:none;stroke-dashoffset:0;stroke-opacity:1"
       id="rect4833"
       width="2.0999999"
       height="15"
       x="-157.67503"
       y="-145.46536"
       transform="scale(-1)" />
    <rect
       style="opacity:1;fill:#008000;fill-opacity:0.66666667;stroke:none;stroke-width:0.65625006;stroke-linecap:round;stroke-linejoin:round;stroke-miterlimit:4;stroke-dasharray:none;stroke-dashoffset:0;stroke-opacity:1"
       id="rect4835"
       width="2.0999999"
       height="15"
       x="-151.02635"
       y="205.8557"
       transform="rotate(-90)" />
    <rect
       transform="rotate(-90)"
       y="165.27232"
       x="-151.02635"
       height="15"
       width="2.0999999"
       id="rect4837"
       style="opacity:1;fill:#008000;fill-opacity:0.66666667;stroke:none;stroke-width:0.65625006;stroke-linecap:round;stroke-linejoin:round;stroke-miterlimit:4;stroke-dasharray:none;stroke-dashoffset:0;stroke-opacity:1" />
    <rect
       transform="scale(-1)"
       style="opacity:1;fill:#008000;fill-opacity:0.66666667;stroke:none;stroke-width:0.65625006;stroke-linecap:round;stroke-linejoin:round;stroke-miterlimit:4;stroke-dasharray:none;stroke-dashoffset:0;stroke-opacity:1"
       id="rect4839"
       width="2.0999999"
       height="15"
       x="-235.05023"
       y="-146.89966" />
    <rect
       y="-142.45557"
       x="-199.95421"
       height="73.799294"
       width="2.0999999"
       id="rect4859"
       style="opacity:1;fill:#008000;fill-opacity:0.66666667;stroke:none;stroke-width:0.65625006;stroke-linecap:round;stroke-linejoin:round;stroke-miterlimit:4;stroke-dasharray:none;stroke-dashoffset:0;stroke-opacity:1"
       transform="scale(-1)" />
    <rect
       transform="scale(-1)"
       style="opacity:1;fill:#008000;fill-opacity:0.66666667;stroke:none;stroke-width:0.65625006;stroke-linecap:round;stroke-linejoin:round;stroke-miterlimit:4;stroke-dasharray:none;stroke-dashoffset:0;stroke-opacity:1"
       id="rect4861"
       width="2.0999999"
       height="73.799294"
       x="-206.83334"
       y="-137.16389" />
    <rect
       y="-131.87222"
       x="-213.71251"
       height="73.799294"
       width="2.0999999"
       id="rect4863"
       style="opacity:1;fill:#008000;fill-opacity:0.66666667;stroke:none;stroke-width:0.65625006;stroke-linecap:round;stroke-linejoin:round;stroke-miterlimit:4;stroke-dasharray:none;stroke-dashoffset:0;stroke-opacity:1"
       transform="scale(-1)" />
    <rect
       transform="scale(-1)"
       style="opacity:1;fill:#008000;fill-opacity:0.66666667;stroke:none;stroke-width:0.65625006;stroke-linecap:round;stroke-linejoin:round;stroke-miterlimit:4;stroke-dasharray:none;stroke-dashoffset:0;stroke-opacity:1"
       id="rect4865"
       width="2.0999999"
       height="73.799294"
       x="-193.07501"
       y="-142.45557" />
    <rect
       y="-137.16389"
       x="-186.1958"
       height="73.799294"
       width="2.0999999"
       id="rect4867"
       style="opacity:1;fill:#008000;fill-opacity:0.66666667;stroke:none;stroke-width:0.65625006;stroke-linecap:round;stroke-linejoin:round;stroke-miterlimit:4;stroke-dasharray:none;stroke-dashoffset:0;stroke-opacity:1"
       transform="scale(-1)" />
    <rect
       transform="scale(-1)"
       style="opacity:1;fill:#008000;fill-opacity:0.66666667;stroke:none;stroke-width:0.65625006;stroke-linecap:round;stroke-linejoin:round;stroke-miterlimit:4;stroke-dasharray:none;stroke-dashoffset:0;stroke-opacity:1"
       id="rect4869"
       width="2.0999999"
       height="73.799294"
       x="-179.31665"
       y="-131.87222" />
    <rect
       y="-126.58056"
       x="-172.4375"
       height="73.799294"
       width="2.0999999"
       id="rect4871"
       style="opacity:1;fill:#008000;fill-opacity:0.66666667;stroke:none;stroke-width:0.65625006;stroke-linecap:round;stroke-linejoin:round;stroke-miterlimit:4;stroke-dasharray:none;stroke-dashoffset:0;stroke-opacity:1"
       transform="scale(-1)" />
    <rect
       transform="scale(-1)"
       style="opacity:1;fill:#008000;fill-opacity:0.66666667;stroke:none;stroke-width:0.65625006;stroke-linecap:round;stroke-linejoin:round;stroke-miterlimit:4;stroke-dasharray:none;stroke-dashoffset:0;stroke-opacity:1"
       id="rect4873"
       width="2.0999999"
       height="73.799294"
       x="-220.59171"
       y="-126.58056" />
    <path
       style="opacity:0.49300005;fill:#aa4400;fill-opacity:0.66666667;stroke:none;stroke-width:0.65625;stroke-linecap:round;stroke-linejoin:round;stroke-miterlimit:4;stroke-dasharray:none;stroke-dashoffset:0;stroke-opacity:1"
       d="m 242.42426,94.904397 c 64.45376,0.490278 77.19266,14.540893 77.19266,35.030163 v 20.22172 c 0,0.54999 -0.29214,0.86936 -0.88838,0.86936 h -76.50458 c -1.27365,0.0275 -1.98219,-0.72284 -1.98219,-1.93581 V 96.922136 c 0,-1.358273 0.89927,-2.017739 2.18249,-2.017739 z"
       id="path4875"
       inkscape:connector-curvature="0"
       sodipodi:nodetypes="cccccccc" />
    <rect
       style="opacity:1;fill:#008000;fill-opacity:0.66666667;stroke:none;stroke-width:0.65625006;stroke-linecap:round;stroke-linejoin:round;stroke-miterlimit:4;stroke-dasharray:none;stroke-dashoffset:0;stroke-opacity:1"
       id="rect4877"
       width="4.3381562"
       height="15.3"
       x="-242.44179"
       y="-115.46535"
       transform="scale(-1)"
       ry="0.30000001"
       rx="0.30000001" />
    <rect
       transform="scale(-1)"
       y="-145.46536"
       x="-242.44179"
       height="15.3"
       width="4.3381562"
       id="rect4879"
       style="opacity:1;fill:#008000;fill-opacity:0.66666667;stroke:none;stroke-width:0.65625006;stroke-linecap:round;stroke-linejoin:round;stroke-miterlimit:4;stroke-dasharray:none;stroke-dashoffset:0;stroke-opacity:1"
       ry="0.30000001"
       rx="0.30000001" />
    <rect
       transform="rotate(-90)"
       y="290.52234"
       x="-153.69907"
       height="15.3"
       width="4.8726954"
       id="rect4881"
       style="opacity:1;fill:#008000;fill-opacity:0.66666667;stroke:none;stroke-width:0.65625006;stroke-linecap:round;stroke-linejoin:round;stroke-miterlimit:4;stroke-dasharray:none;stroke-dashoffset:0;stroke-opacity:1"
       ry="0.30000001"
       rx="0.30000001" />
    <rect
       style="opacity:1;fill:#008000;fill-opacity:0.66666667;stroke:none;stroke-width:0.65625006;stroke-linecap:round;stroke-linejoin:round;stroke-miterlimit:4;stroke-dasharray:none;stroke-dashoffset:0;stroke-opacity:1"
       id="rect4883"
       width="4.8726954"
       height="15.3"
       x="-153.69907"
       y="249.93907"
       transform="rotate(-90)"
       ry="0.30000001"
       rx="0.30000001" />
    <rect
       y="-146.89966"
       x="-321.8887"
       height="15.3"
       width="4.4717908"
       id="rect4885"
       style="opacity:1;fill:#008000;fill-opacity:0.66666667;stroke:none;stroke-width:0.65625006;stroke-linecap:round;stroke-linejoin:round;stroke-miterlimit:4;stroke-dasharray:none;stroke-dashoffset:0;stroke-opacity:1"
       transform="scale(-1)"
       ry="0.30000001"
       rx="0.30000001" />
    <rect
       transform="scale(-1)"
       style="opacity:1;fill:#008000;fill-opacity:0.66666667;stroke:none;stroke-width:0.65625006;stroke-linecap:round;stroke-linejoin:round;stroke-miterlimit:4;stroke-dasharray:none;stroke-dashoffset:0;stroke-opacity:1"
       id="rect4887"
       width="2.2"
       height="73.799294"
       x="-284.65427"
       y="-142.45557"
       rx="1"
       ry="1" />
    <rect
       y="-137.16389"
       x="-291.53339"
       height="73.799294"
       width="2.2"
       id="rect4889"
       style="opacity:1;fill:#008000;fill-opacity:0.66666667;stroke:none;stroke-width:0.65625006;stroke-linecap:round;stroke-linejoin:round;stroke-miterlimit:4;stroke-dasharray:none;stroke-dashoffset:0;stroke-opacity:1"
       transform="scale(-1)"
       ry="1"
       rx="1" />
    <rect
       transform="scale(-1)"
       style="opacity:1;fill:#008000;fill-opacity:0.66666667;stroke:none;stroke-width:0.65625006;stroke-linecap:round;stroke-linejoin:round;stroke-miterlimit:4;stroke-dasharray:none;stroke-dashoffset:0;stroke-opacity:1"
       id="rect4891"
       width="2.2"
       height="73.799294"
       x="-298.41251"
       y="-131.87222"
       ry="1"
       rx="1" />
    <rect
       y="-142.45557"
       x="-277.77509"
       height="73.799294"
       width="2.2"
       id="rect4893"
       style="opacity:1;fill:#008000;fill-opacity:0.66666667;stroke:none;stroke-width:0.65625006;stroke-linecap:round;stroke-linejoin:round;stroke-miterlimit:4;stroke-dasharray:none;stroke-dashoffset:0;stroke-opacity:1"
       transform="scale(-1)"
       ry="1"
       rx="1" />
    <rect
       transform="scale(-1)"
       style="opacity:1;fill:#008000;fill-opacity:0.66666667;stroke:none;stroke-width:0.65625006;stroke-linecap:round;stroke-linejoin:round;stroke-miterlimit:4;stroke-dasharray:none;stroke-dashoffset:0;stroke-opacity:1"
       id="rect4895"
       width="2.2"
       height="73.799294"
       x="-270.8959"
       y="-137.16389"
       ry="1"
       rx="1" />
    <rect
       y="-131.87222"
       x="-264.01675"
       height="73.799294"
       width="2.2"
       id="rect4897"
       style="opacity:1;fill:#008000;fill-opacity:0.66666667;stroke:none;stroke-width:0.65625006;stroke-linecap:round;stroke-linejoin:round;stroke-miterlimit:4;stroke-dasharray:none;stroke-dashoffset:0;stroke-opacity:1"
       transform="scale(-1)"
       ry="1"
       rx="1" />
    <rect
       transform="scale(-1)"
       style="opacity:1;fill:#008000;fill-opacity:0.66666667;stroke:none;stroke-width:0.65625006;stroke-linecap:round;stroke-linejoin:round;stroke-miterlimit:4;stroke-dasharray:none;stroke-dashoffset:0;stroke-opacity:1"
       id="rect4899"
       width="2.2"
       height="73.799294"
       x="-257.13763"
       y="-126.58056"
       ry="1"
       rx="1" />
    <rect
       y="-126.58056"
       x="-305.29169"
       height="73.799294"
       width="2.2"
       id="rect4901"
       style="opacity:1;fill:#008000;fill-opacity:0.66666667;stroke:none;stroke-width:0.65625006;stroke-linecap:round;stroke-linejoin:round;stroke-miterlimit:4;stroke-dasharray:none;stroke-dashoffset:0;stroke-opacity:1"
       transform="scale(-1)"
       ry="1"
       rx="1" />
    <path
       style="opacity:0.49300005;fill:#aa4400;fill-opacity:0.66666667;stroke:none;stroke-width:2.48031497;stroke-linecap:round;stroke-linejoin:round;stroke-miterlimit:4;stroke-dasharray:none;stroke-dashoffset:0;stroke-opacity:1"
       d="M 1256.25 358.69336 C 1251.4 358.69336 1248 361.18668 1248 366.32031 L 1248 378.57812 L 1255.1816 378.57812 C 1255.8098 378.57812 1256.3145 379.08278 1256.3145 379.71094 L 1256.3145 435.27148 C 1256.3145 435.89964 1255.8098 436.4043 1255.1816 436.4043 L 1248 436.4043 L 1248 491.96289 L 1255.1816 491.96289 C 1255.8098 491.96289 1256.3145 492.4695 1256.3145 493.09766 L 1256.3145 548.65625 C 1256.3145 549.28441 1255.8098 549.79102 1255.1816 549.79102 L 1248 549.79102 L 1248 563.48828 C 1248 568.07273 1250.6784 570.90862 1255.4922 570.80469 L 1284.6504 570.80469 L 1284.6504 563.62695 C 1284.6504 562.9988 1285.157 562.49414 1285.7852 562.49414 L 1341.3438 562.49414 C 1341.9719 562.49414 1342.4785 562.9988 1342.4785 563.62695 L 1342.4785 570.80469 L 1438.0371 570.80469 L 1438.0371 563.62695 C 1438.0371 562.9988 1438.5418 562.49414 1439.1699 562.49414 L 1494.7285 562.49414 C 1495.3567 562.49414 1495.8633 562.9988 1495.8633 563.62695 L 1495.8633 570.80469 L 1544.6426 570.80469 C 1546.8961 570.80469 1548.002 569.59823 1548.002 567.51953 L 1548.002 555.21094 L 1540.8184 555.21094 C 1540.1902 555.21094 1539.6855 554.70628 1539.6855 554.07812 L 1539.6855 498.51758 C 1539.6855 497.88942 1540.1902 497.38477 1540.8184 497.38477 L 1548.002 497.38477 L 1548.002 491.0918 C 1548.002 452.49019 1536.0297 419.93617 1493.8574 396.76172 L 1493.8574 474.63477 C 1493.8574 476.72862 1492.172 478.41406 1490.0781 478.41406 L 1489.3223 478.41406 C 1487.2284 478.41406 1485.543 476.72862 1485.543 474.63477 L 1485.543 392.50391 C 1480.1006 389.90549 1474.2062 387.44601 1467.8574 385.12109 L 1467.8574 494.63477 C 1467.8574 496.72862 1466.172 498.41406 1464.0781 498.41406 L 1463.3223 498.41406 C 1461.2284 498.41406 1459.543 496.72862 1459.543 494.63477 L 1459.543 382.24414 C 1453.9818 380.42699 1448.0883 378.7075 1441.8574 377.08594 L 1441.8574 514.63477 C 1441.8574 516.72862 1440.172 518.41406 1438.0781 518.41406 L 1437.3223 518.41406 C 1435.2284 518.41406 1433.543 516.72862 1433.543 514.63477 L 1433.543 375.02734 C 1427.9137 373.70487 1422.0182 372.4581 1415.8574 371.28711 L 1415.8574 534.63477 C 1415.8574 536.72862 1414.172 538.41406 1412.0781 538.41406 L 1411.3223 538.41406 C 1409.2284 538.41406 1407.543 536.72862 1407.543 534.63477 L 1407.543 369.7832 C 1401.8596 368.80411 1395.9832 367.87884 1389.8574 367.02344 L 1389.8574 534.63477 C 1389.8574 536.72862 1388.172 538.41406 1386.0781 538.41406 L 1385.3223 538.41406 C 1383.2284 538.41406 1381.543 536.72862 1381.543 534.63477 L 1381.543 365.91797 C 1375.8399 365.19742 1369.9369 364.53296 1363.8574 363.91602 L 1363.8574 514.63477 C 1363.8574 516.72862 1362.172 518.41406 1360.0781 518.41406 L 1359.3223 518.41406 C 1357.2284 518.41406 1355.543 516.72862 1355.543 514.63477 L 1355.543 363.11328 C 1349.8109 362.59099 1343.919 362.11251 1337.8574 361.67969 L 1337.8574 494.63477 C 1337.8574 496.72862 1336.172 498.41406 1334.0781 498.41406 L 1333.3223 498.41406 C 1331.2284 498.41406 1329.543 496.72862 1329.543 494.63477 L 1329.543 361.11719 C 1323.7992 360.75493 1317.893 360.43628 1311.8574 360.15234 L 1311.8574 474.63477 C 1311.8574 476.72862 1310.172 478.41406 1308.0781 478.41406 L 1307.3223 478.41406 C 1305.2284 478.41406 1303.543 476.72862 1303.543 474.63477 L 1303.543 359.79492 C 1288.652 359.1964 1272.9254 358.8202 1256.25 358.69336 z "
       transform="scale(0.26458333)"
       id="path4909" />
    <path
       id="path4953"
       d="m 422.34119,94.904284 c -1.28322,0 -2.18281,0.659691 -2.18281,2.017963 v 3.243213 h 1.90013 c 0.16622,0 0.29975,0.13352 0.29975,0.29972 v 14.7004 c 0,0.1662 -0.13353,0.29972 -0.29975,0.29972 h -1.90013 v 14.69988 h 1.90013 c 0.16622,0 0.29975,0.13404 0.29975,0.30024 v 14.69988 c 0,0.1662 -0.13353,0.30024 -0.29975,0.30024 h -1.90013 v 3.62407 c 0,1.21296 0.70866,1.96329 1.98231,1.9358 h 7.71478 v -1.89911 c 0,-0.1662 0.13404,-0.29973 0.30025,-0.29973 h 14.69988 c 0.16618,0 0.30022,0.13353 0.30022,0.29973 v 1.89911 h 25.28321 v -1.89911 c 0,-0.1662 0.13354,-0.29973 0.29972,-0.29973 h 14.69988 c 0.16621,0 0.30025,0.13353 0.30025,0.29973 v 1.89911 h 12.90619 c 0.59624,0 0.88884,-0.31921 0.88884,-0.8692 v -3.25665 h -1.90066 c -0.16621,0 -0.29975,-0.13353 -0.29975,-0.29973 v -14.70039 c 0,-0.1662 0.13354,-0.29972 0.29975,-0.29972 h 1.90066 v -1.66502 c 0,-10.21334 -3.16767,-18.82659 -14.32576,-24.95816 v 20.60391 c 0,0.554 -0.44593,0.99994 -0.99994,0.99994 h -0.19997 c -0.55401,0 -0.99994,-0.44594 -0.99994,-0.99994 v -21.73046 c -1.43997,-0.6875 -2.99953,-1.33823 -4.67931,-1.95337 v 28.97549 c 0,0.554 -0.44593,0.99994 -0.99994,0.99994 h -0.19998 c -0.55401,0 -0.99994,-0.44594 -0.99994,-0.99994 v -29.73668 c -1.4714,-0.48079 -3.03072,-0.93574 -4.67931,-1.364776 v 36.393126 c 0,0.554 -0.44593,0.99994 -0.99994,0.99994 h -0.19997 c -0.55401,0 -0.99994,-0.44594 -0.99994,-0.99994 V 99.225982 c -1.48942,-0.349903 -3.04927,-0.679778 -4.67932,-0.989602 v 43.21907 c 0,0.554 -0.44593,0.99993 -0.99994,0.99993 h -0.19997 c -0.55401,0 -0.99994,-0.44593 -0.99994,-0.99993 V 97.83847 c -1.50373,-0.25905 -3.05853,-0.503861 -4.67931,-0.730186 v 44.347166 c 0,0.554 -0.44593,0.99993 -0.99994,0.99993 h -0.19998 c -0.55401,0 -0.99994,-0.44593 -0.99994,-0.99993 V 96.815795 c -1.50894,-0.190646 -3.07078,-0.366451 -4.67931,-0.529683 v 39.877668 c 0,0.554 -0.44593,0.99994 -0.99994,0.99994 h -0.19997 c -0.55401,0 -0.99994,-0.44594 -0.99994,-0.99994 V 96.073721 c -1.51662,-0.138189 -3.07552,-0.264787 -4.67932,-0.379304 v 35.177693 c 0,0.554 -0.44593,0.99994 -0.99994,0.99994 h -0.19997 c -0.55401,0 -0.99994,-0.44594 -0.99994,-0.99994 V 95.545589 c -1.51971,-0.09585 -3.08239,-0.180158 -4.67931,-0.255284 v 30.290145 c 0,0.554 -0.44593,0.99994 -0.99994,0.99994 h -0.19998 c -0.55401,0 -0.99994,-0.44594 -0.99994,-0.99994 V 95.195738 c -3.93991,-0.158358 -8.1009,-0.257895 -12.51294,-0.291454 z"
       style="opacity:1;fill:none;fill-opacity:0.66666667;stroke:#000000;stroke-width:0.05;stroke-linecap:round;stroke-linejoin:round;stroke-miterlimit:4;stroke-dasharray:none;stroke-dashoffset:0;stroke-opacity:1"
       inkscape:connector-curvature="0" />
    <g
       transform="translate(19.3416,95.144592)"
       id="g4965">
      <circle
         style="opacity:1;fill:#0000ff;fill-opacity:0.66666667;stroke:none;stroke-width:0.65625;stroke-linecap:round;stroke-linejoin:round;stroke-miterlimit:4;stroke-dasharray:none;stroke-dashoffset:0;stroke-opacity:1"
         id="circle4961"
         cx="43.728584"
         cy="74.334465"
         r="1.5" />
      <circle
         cy="74.334465"
         cx="43.728584"
         id="circle4963"
         style="opacity:1;fill:#0000ff;fill-opacity:0.66666667;stroke:none;stroke-width:0.65625006;stroke-linecap:round;stroke-linejoin:round;stroke-miterlimit:4;stroke-dasharray:none;stroke-dashoffset:0;stroke-opacity:1"
         r="2.5" />
    </g>
    <g
       id="g4971"
       transform="translate(8.229093,95.144592)">
      <circle
         r="1.5"
         cy="74.334465"
         cx="43.728584"
         id="circle4967"
         style="opacity:1;fill:#0000ff;fill-opacity:0.66666667;stroke:none;stroke-width:0.65625;stroke-linecap:round;stroke-linejoin:round;stroke-miterlimit:4;stroke-dasharray:none;stroke-dashoffset:0;stroke-opacity:1" />
      <circle
         r="2.5"
         style="opacity:1;fill:#0000ff;fill-opacity:0.66666667;stroke:none;stroke-width:0.65625006;stroke-linecap:round;stroke-linejoin:round;stroke-miterlimit:4;stroke-dasharray:none;stroke-dashoffset:0;stroke-opacity:1"
         id="circle4969"
         cx="43.728584"
         cy="74.334465" />
    </g>
    <g
       id="g4979"
       transform="translate(105.34162,95.144592)">
      <circle
         r="1.5"
         cy="74.334465"
         cx="43.728584"
         id="circle4975"
         style="opacity:1;fill:#0000ff;fill-opacity:0.66666667;stroke:none;stroke-width:0.65625;stroke-linecap:round;stroke-linejoin:round;stroke-miterlimit:4;stroke-dasharray:none;stroke-dashoffset:0;stroke-opacity:1" />
      <circle
         r="2.5"
         style="opacity:1;fill:#0000ff;fill-opacity:0.66666667;stroke:none;stroke-width:0.65625006;stroke-linecap:round;stroke-linejoin:round;stroke-miterlimit:4;stroke-dasharray:none;stroke-dashoffset:0;stroke-opacity:1"
         id="circle4977"
         cx="43.728584"
         cy="74.334465" />
    </g>
    <g
       transform="translate(94.229109,95.144592)"
       id="g4985">
      <circle
         style="opacity:1;fill:#0000ff;fill-opacity:0.66666667;stroke:none;stroke-width:0.65625;stroke-linecap:round;stroke-linejoin:round;stroke-miterlimit:4;stroke-dasharray:none;stroke-dashoffset:0;stroke-opacity:1"
         id="circle4981"
         cx="43.728584"
         cy="74.334465"
         r="1.5" />
      <circle
         cy="74.334465"
         cx="43.728584"
         id="circle4983"
         style="opacity:1;fill:#0000ff;fill-opacity:0.66666667;stroke:none;stroke-width:0.65625006;stroke-linecap:round;stroke-linejoin:round;stroke-miterlimit:4;stroke-dasharray:none;stroke-dashoffset:0;stroke-opacity:1"
         r="2.5" />
    </g>
    <path
       style="opacity:1;fill:#008000;fill-opacity:0.66666667;stroke:none;stroke-width:2.48031521;stroke-linecap:round;stroke-linejoin:round;stroke-miterlimit:4;stroke-dasharray:none;stroke-dashoffset:0;stroke-opacity:1"
       d="M 190.49609 712.20508 C 186.30838 712.20508 182.9375 715.57596 182.9375 719.76367 L 182.9375 761.33789 C 182.9375 765.52561 186.30838 768.89648 190.49609 768.89648 L 213.61719 768.89648 C 213.72812 766.90363 215.35345 765.32617 217.375 765.32617 C 219.39655 765.32617 221.02188 766.90363 221.13281 768.89648 L 376.13672 768.89648 C 376.24765 766.90363 377.87297 765.32617 379.89453 765.32617 C 381.91608 765.32617 383.54141 766.90363 383.65234 768.89648 L 538.65625 768.89648 C 538.76716 766.9036 540.3925 765.32617 542.41406 765.32617 C 544.43563 765.32617 546.06292 766.9036 546.17383 768.89648 L 569.29492 768.89648 C 573.48264 768.89648 576.85352 765.52561 576.85352 761.33789 L 576.85352 719.76367 C 576.85352 715.57596 573.48264 712.20508 569.29492 712.20508 L 546.17383 712.20508 C 546.06292 714.19796 544.43563 715.77539 542.41406 715.77539 C 540.3925 715.77539 538.76716 714.19796 538.65625 712.20508 L 383.65234 712.20508 C 383.54141 714.19794 381.91608 715.77539 379.89453 715.77539 C 377.87297 715.77539 376.24765 714.19794 376.13672 712.20508 L 221.13281 712.20508 C 221.02188 714.19794 219.39655 715.77539 217.375 715.77539 C 215.35345 715.77539 213.72812 714.19794 213.61719 712.20508 L 190.49609 712.20508 z M 268.60742 731.10156 L 328.66211 731.10156 C 332.9655 731.10156 336.42969 734.56577 336.42969 738.86914 L 336.42969 742.23242 C 336.42969 746.53583 332.9655 750 328.66211 750 L 268.60742 750 C 264.30403 750 260.83984 746.53583 260.83984 742.23242 L 260.83984 738.86914 C 260.83984 734.56577 264.30403 731.10156 268.60742 731.10156 z M 431.12695 731.10156 L 491.18164 731.10156 C 495.48505 731.10156 498.95117 734.56577 498.95117 738.86914 L 498.95117 742.23242 C 498.95117 746.53583 495.48505 750 491.18164 750 L 431.12695 750 C 426.82358 750 423.35938 746.53583 423.35938 742.23242 L 423.35938 738.86914 C 423.35938 734.56577 426.82358 731.10156 431.12695 731.10156 z M 196.375 734.88086 A 5.6692912 5.6692912 0 0 1 202.04492 740.55078 A 5.6692912 5.6692912 0 0 1 196.375 746.2207 A 5.6692912 5.6692912 0 0 1 190.70703 740.55078 A 5.6692912 5.6692912 0 0 1 196.375 734.88086 z M 238.375 734.88086 A 5.6692912 5.6692912 0 0 1 244.04492 740.55078 A 5.6692912 5.6692912 0 0 1 238.375 746.2207 A 5.6692912 5.6692912 0 0 1 232.70703 740.55078 A 5.6692912 5.6692912 0 0 1 238.375 734.88086 z M 358.89453 734.88086 A 5.6692912 5.6692912 0 0 1 364.56445 740.55078 A 5.6692912 5.6692912 0 0 1 358.89453 746.2207 A 5.6692912 5.6692912 0 0 1 353.22656 740.55078 A 5.6692912 5.6692912 0 0 1 358.89453 734.88086 z M 400.89453 734.88086 A 5.6692912 5.6692912 0 0 1 406.56445 740.55078 A 5.6692912 5.6692912 0 0 1 400.89453 746.2207 A 5.6692912 5.6692912 0 0 1 395.22656 740.55078 A 5.6692912 5.6692912 0 0 1 400.89453 734.88086 z M 521.41406 734.88086 A 5.6692912 5.6692912 0 0 1 527.08398 740.55078 A 5.6692912 5.6692912 0 0 1 521.41406 746.2207 A 5.6692912 5.6692912 0 0 1 515.74609 740.55078 A 5.6692912 5.6692912 0 0 1 521.41406 734.88086 z M 563.41406 734.88086 A 5.6692912 5.6692912 0 0 1 569.08398 740.55078 A 5.6692912 5.6692912 0 0 1 563.41406 746.2207 A 5.6692912 5.6692912 0 0 1 557.74609 740.55078 A 5.6692912 5.6692912 0 0 1 563.41406 734.88086 z "
       transform="scale(0.26458333)"
       id="rect5006" />
    <path
       style="opacity:1;fill:none;fill-opacity:0.66666667;stroke:#000000;stroke-width:0.05;stroke-linecap:round;stroke-linejoin:round;stroke-miterlimit:4;stroke-dasharray:none;stroke-dashoffset:0;stroke-opacity:1"
       d="m 50.40209,209.60427 c -1.107998,0 -1.999877,0.89188 -1.999877,1.99988 v 10.99984 c 0,1.108 0.891879,1.99988 1.999877,1.99988 h 6.117457 c 0.02935,-0.52728 0.459386,-0.94465 0.994254,-0.94465 0.534869,0 0.964904,0.41737 0.994254,0.94465 h 41.011451 c 0.02935,-0.52728 0.459383,-0.94465 0.994254,-0.94465 0.53487,0 0.9649,0.41737 0.99425,0.94465 h 41.01145 c 0.0293,-0.52729 0.45939,-0.94465 0.99426,-0.94465 0.53487,0 0.96543,0.41736 0.99477,0.94465 h 6.11746 c 1.108,0 1.99988,-0.89188 1.99988,-1.99988 v -10.99984 c 0,-1.108 -0.89188,-1.99988 -1.99988,-1.99988 h -6.11746 c -0.0293,0.52728 -0.4599,0.94464 -0.99477,0.94464 -0.53487,0 -0.96491,-0.41736 -0.99426,-0.94464 h -41.01145 c -0.0293,0.52728 -0.45938,0.94464 -0.99425,0.94464 -0.534871,0 -0.964904,-0.41736 -0.994254,-0.94464 H 58.508055 c -0.02935,0.52728 -0.459385,0.94464 -0.994254,0.94464 -0.534868,0 -0.964903,-0.41736 -0.994254,-0.94464 z"
       id="path4718" />
    <path
       style="opacity:1;fill:none;fill-opacity:0.66666667;stroke:#000000;stroke-width:0.05;stroke-linecap:round;stroke-linejoin:round;stroke-miterlimit:4;stroke-dasharray:none;stroke-dashoffset:0;stroke-opacity:1"
       d="m 71.069046,214.60396 h 15.88947 c 1.138605,0 2.055172,0.91657 2.055172,2.05517 v 0.88987 c 0,1.13861 -0.916567,2.05517 -2.055172,2.05517 h -15.88947 c -1.138606,0 -2.055173,-0.91656 -2.055173,-2.05517 v -0.88987 c 0,-1.1386 0.916567,-2.05517 2.055173,-2.05517 z"
       id="path4716" />
    <path
       style="opacity:1;fill:none;fill-opacity:0.66666667;stroke:#000000;stroke-width:0.05;stroke-linecap:round;stroke-linejoin:round;stroke-miterlimit:4;stroke-dasharray:none;stroke-dashoffset:0;stroke-opacity:1"
       d="m 114.069,214.60396 h 15.88947 c 1.13861,0 2.05569,0.91657 2.05569,2.05517 v 0.88987 c 0,1.13861 -0.91708,2.05517 -2.05569,2.05517 H 114.069 c -1.1386,0 -2.05517,-0.91656 -2.05517,-2.05517 v -0.88987 c 0,-1.1386 0.91657,-2.05517 2.05517,-2.05517 z"
       id="path4714" />
    <g
       id="g4737"
       transform="translate(-1.2822558e-4)">
      <path
         id="path4712"
         d="m 51.957551,215.6039 a 1.4999999,1.4999999 0 0 1 1.500167,1.50017 1.4999999,1.4999999 0 0 1 -1.500167,1.50016 1.4999999,1.4999999 0 0 1 -1.49965,-1.50016 1.4999999,1.4999999 0 0 1 1.49965,-1.50017 z"
         style="opacity:1;fill:none;fill-opacity:0.66666667;stroke:#000000;stroke-width:0.05;stroke-linecap:round;stroke-linejoin:round;stroke-miterlimit:4;stroke-dasharray:none;stroke-dashoffset:0;stroke-opacity:1"
         inkscape:connector-curvature="0" />
      <path
         id="path4710"
         d="m 63.070051,215.6039 a 1.4999999,1.4999999 0 0 1 1.500167,1.50017 1.4999999,1.4999999 0 0 1 -1.500167,1.50016 1.4999999,1.4999999 0 0 1 -1.49965,-1.50016 1.4999999,1.4999999 0 0 1 1.49965,-1.50017 z"
         style="opacity:1;fill:none;fill-opacity:0.66666667;stroke:#000000;stroke-width:0.05;stroke-linecap:round;stroke-linejoin:round;stroke-miterlimit:4;stroke-dasharray:none;stroke-dashoffset:0;stroke-opacity:1"
         inkscape:connector-curvature="0" />
    </g>
    <g
       id="g4733"
       transform="translate(-7.2966795e-5)">
      <path
         id="path4708"
         d="m 94.95751,215.6039 a 1.4999999,1.4999999 0 0 1 1.500166,1.50017 1.4999999,1.4999999 0 0 1 -1.500166,1.50016 1.4999999,1.4999999 0 0 1 -1.499651,-1.50016 1.4999999,1.4999999 0 0 1 1.499651,-1.50017 z"
         style="opacity:1;fill:none;fill-opacity:0.66666667;stroke:#000000;stroke-width:0.05;stroke-linecap:round;stroke-linejoin:round;stroke-miterlimit:4;stroke-dasharray:none;stroke-dashoffset:0;stroke-opacity:1"
         inkscape:connector-curvature="0" />
      <path
         id="path4706"
         d="m 106.07001,215.6039 a 1.4999999,1.4999999 0 0 1 1.50017,1.50017 1.4999999,1.4999999 0 0 1 -1.50017,1.50016 1.4999999,1.4999999 0 0 1 -1.49965,-1.50016 1.4999999,1.4999999 0 0 1 1.49965,-1.50017 z"
         style="opacity:1;fill:none;fill-opacity:0.66666667;stroke:#000000;stroke-width:0.05;stroke-linecap:round;stroke-linejoin:round;stroke-miterlimit:4;stroke-dasharray:none;stroke-dashoffset:0;stroke-opacity:1"
         inkscape:connector-curvature="0" />
    </g>
    <g
       id="g4729"
       transform="translate(-2.8466795e-5)">
      <path
         id="path4704"
         d="m 137.95747,215.6039 a 1.4999999,1.4999999 0 0 1 1.50016,1.50017 1.4999999,1.4999999 0 0 1 -1.50016,1.50016 1.4999999,1.4999999 0 0 1 -1.49965,-1.50016 1.4999999,1.4999999 0 0 1 1.49965,-1.50017 z"
         style="opacity:1;fill:none;fill-opacity:0.66666667;stroke:#000000;stroke-width:0.05;stroke-linecap:round;stroke-linejoin:round;stroke-miterlimit:4;stroke-dasharray:none;stroke-dashoffset:0;stroke-opacity:1"
         inkscape:connector-curvature="0" />
      <path
         id="path5115"
         d="m 149.06997,215.6039 a 1.4999999,1.4999999 0 0 1 1.50016,1.50017 1.4999999,1.4999999 0 0 1 -1.50016,1.50016 1.4999999,1.4999999 0 0 1 -1.49965,-1.50016 1.4999999,1.4999999 0 0 1 1.49965,-1.50017 z"
         style="opacity:1;fill:none;fill-opacity:0.66666667;stroke:#000000;stroke-width:0.05;stroke-linecap:round;stroke-linejoin:round;stroke-miterlimit:4;stroke-dasharray:none;stroke-dashoffset:0;stroke-opacity:1"
         inkscape:connector-curvature="0" />
    </g>
    <path
       style="fill:none;stroke:#555555;stroke-width:0.05;stroke-opacity:1"
       d="m -3.145209,319.4676 c -1.28323,0 -2.18281,0.65969 -2.18281,2.01796 v 3.24322 h 1.90014 c 0.16621,0 0.29972,0.13352 0.29972,0.29972 v 14.7004 c 0,0.1662 -0.13351,0.29971 -0.29972,0.29971 h -1.90014 v 14.69988 h 1.90014 c 0.16621,0 0.29972,0.13405 0.29972,0.30024 v 14.69988 c 0,0.1662 -0.13351,0.30025 -0.29972,0.30025 h -1.90014 v 3.62406 c 0,1.21298 0.70866,1.96329 1.98231,1.9358 h 7.71477 v -1.89911 c 0,-0.1662 0.13403,-0.29971 0.30024,-0.29971 h 14.69988 c 0.16618,0 0.30024,0.13351 0.30024,0.29971 v 1.89911 h 25.28321 v -1.89911 c 0,-0.1662 0.13353,-0.29971 0.29972,-0.29971 h 14.69988 c 0.16623,0 0.30024,0.13351 0.30024,0.29971 v 1.89911 h 12.90619 c 0.59624,0 0.88883,-0.31921 0.88883,-0.86919 v -3.25664 h -1.90066 c -0.16621,0 -0.29972,-0.13353 -0.29972,-0.29973 v -14.7004 c 0,-0.16621 0.13351,-0.29972 0.29972,-0.29972 h 1.90066 v -1.66502 c 0,-10.21333 -3.16765,-18.8266 -14.32574,-24.95817 v 20.60392 c 0,0.55399 -0.44592,0.99993 -0.99994,0.99993 h -0.19998 c -0.55401,0 -0.99994,-0.44594 -0.99994,-0.99993 v -21.73046 c -1.43996,-0.6875 -2.99952,-1.33823 -4.6793,-1.95337 v 28.97549 c 0,0.55399 -0.44593,0.99993 -0.99994,0.99993 h -0.19999 c -0.55401,0 -0.99994,-0.44594 -0.99994,-0.99993 v -29.73668 c -1.4714,-0.48079 -3.0307,-0.93574 -4.6793,-1.36478 v 36.39313 c 0,0.55399 -0.44593,0.99993 -0.99994,0.99993 h -0.19999 c -0.554,0 -0.99994,-0.44594 -0.99994,-0.99993 v -36.93779 c -1.48942,-0.34992 -3.04926,-0.6798 -4.6793,-0.98961 v 43.21907 c 0,0.55399 -0.44592,0.99993 -0.99994,0.99993 h -0.19998 c -0.55401,0 -0.99994,-0.44594 -0.99994,-0.99993 v -43.61698 c -1.50373,-0.25905 -3.05852,-0.50387 -4.6793,-0.73019 v 44.34717 c 0,0.55399 -0.44593,0.99993 -0.99994,0.99993 h -0.19999 c -0.55401,0 -0.99994,-0.44594 -0.99994,-0.99993 v -44.63965 c -1.50895,-0.19066 -3.07076,-0.36645 -4.6793,-0.5297 v 39.87768 c 0,0.55399 -0.44593,0.99993 -0.99994,0.99993 h -0.19999 c -0.554,0 -0.99994,-0.44594 -0.99994,-0.99993 v -40.09006 c -1.51662,-0.13819 -3.0755,-0.26479 -4.67929,-0.3793 v 35.1777 c 0,0.55399 -0.44593,0.99993 -0.99994,0.99993 h -0.19999 c -0.55401,0 -0.99994,-0.44594 -0.99994,-0.99993 v -35.32653 c -1.51971,-0.0958 -3.08239,-0.18015 -4.6793,-0.25528 v 30.29014 c 0,0.55399 -0.44593,0.99993 -0.99994,0.99993 h -0.19999 c -0.55401,0 -0.99994,-0.44594 -0.99994,-0.99993 v -30.38471 c -3.93991,-0.15836 -8.1009,-0.2579 -12.51293,-0.29146 z"
       id="path4586" />
    <path
       id="path398"
       style="fill:none;stroke:#555555;stroke-width:0.05;stroke-opacity:1"
       d="m 47.914721,396.4562 h 15.88947 c 1.13861,0 2.05569,0.91656 2.05569,2.05516 v 0.88988 c 0,1.1386 -0.91708,2.05516 -2.05569,2.05516 h -15.88947 c -1.1386,0 -2.05517,-0.91656 -2.05517,-2.05516 v -0.88988 c 0,-1.1386 0.91657,-2.05516 2.05517,-2.05516 z m -42.99944,0 h 15.88947 c 1.1386,0 2.05465,0.91656 2.05465,2.05516 v 0.88988 c 0,1.1386 -0.91605,2.05516 -2.05465,2.05516 H 4.915281 c -1.13861,0 -2.05517,-0.91656 -2.05517,-2.05516 v -0.88988 c 0,-1.1386 0.91656,-2.05516 2.05517,-2.05516 z m -14.55001,-4.99971 h -6.11746 c -1.108,0 -1.99988,0.89189 -1.99988,1.99989 v 10.99984 c 0,1.108 0.89188,1.99987 1.99988,1.99987 h 6.11746 z m 1.9885,14.9996 h 41.01145 v -14.9996 h -41.01145 z m 42.99996,0 h 41.01145 v -14.9996 h -41.01145 z m 43.00048,0 h 6.117453 c 1.107998,0 1.999879,-0.89187 1.999879,-1.99987 v -10.99984 c 0,-1.108 -0.891881,-1.99989 -1.999879,-1.99989 h -6.117453 z"
       inkscape:connector-curvature="0"
       sodipodi:nodetypes="ssssssssssssssssssccssscccccccccccccsssscc" />
    <path
       style="opacity:0.53299997;fill:none;stroke:#ff0000;stroke-width:3;stroke-linecap:round;stroke-linejoin:round;stroke-miterlimit:4;stroke-dasharray:none;stroke-opacity:1"
       d="m -3.1452091,319.4676 c -1.2832299,0 -2.1828099,0.65969 -2.1828099,2.01796 v 3.24322 h 1.9001399 c 0.16621,0 0.29972,0.13352 0.29972,0.29972 v 14.7004 c 0,0.1662 -0.13351,0.29971 -0.29972,0.29971 H -5.328019 v 14.69988 h 1.9001399 c 0.16621,0 0.29972,0.13405 0.29972,0.30024 v 14.69988 c 0,0.1662 -0.13351,0.30025 -0.29972,0.30025 H -5.328019 v 3.62406 c 0,1.21298 0.70866,1.96329 1.9823099,1.9358 h 7.7147697 v -1.89911 c 0,-0.1662 0.13403,-0.29971 0.30024,-0.29971 H 19.369181 c 0.16618,0 0.30024,0.13351 0.30024,0.29971 v 1.89911 h 25.28321 v -1.89911 c 0,-0.1662 0.13353,-0.29971 0.29972,-0.29971 h 14.69988 c 0.16623,0 0.30024,0.13351 0.30024,0.29971 v 1.89911 h 12.90619 c 0.596244,0 0.888834,-0.31921 0.888834,-0.86919 v -3.25664 h -1.900664 c -0.16621,0 -0.29972,-0.13353 -0.29972,-0.29973 v -14.7004 c 0,-0.16621 0.13351,-0.29972 0.29972,-0.29972 h 1.900664 v -1.66502 c 0,-10.21333 -3.167654,-18.8266 -14.325744,-24.95817 v 20.60392 c 0,0.55399 -0.44592,0.99993 -0.99994,0.99993 h -0.19998 c -0.55401,0 -0.99994,-0.44594 -0.99994,-0.99993 v -21.73046 c -1.43996,-0.6875 -2.99952,-1.33823 -4.6793,-1.95337 v 28.97549 c 0,0.55399 -0.44593,0.99993 -0.99994,0.99993 h -0.19999 c -0.55401,0 -0.99994,-0.44594 -0.99994,-0.99993 v -29.73668 c -1.4714,-0.48079 -3.0307,-0.93574 -4.6793,-1.36478 v 36.39313 c 0,0.55399 -0.44593,0.99993 -0.99994,0.99993 h -0.19999 c -0.554,0 -0.99994,-0.44594 -0.99994,-0.99993 v -36.93779 c -1.48942,-0.34992 -3.04926,-0.6798 -4.6793,-0.98961 v 43.21907 c 0,0.55399 -0.44592,0.99993 -0.99994,0.99993 h -0.19998 c -0.55401,0 -0.99994,-0.44594 -0.99994,-0.99993 v -43.61698 c -1.50373,-0.25905 -3.05852,-0.50387 -4.6793,-0.73019 v 44.34717 c 0,0.55399 -0.44593,0.99993 -0.99994,0.99993 h -0.19999 c -0.55401,0 -0.99994,-0.44594 -0.99994,-0.99993 v -44.63965 c -1.50895,-0.19066 -3.07076,-0.36645 -4.6793,-0.5297 v 39.87768 c 0,0.55399 -0.44593,0.99993 -0.99994,0.99993 h -0.19999 c -0.554,0 -0.99994,-0.44594 -0.99994,-0.99993 v -40.09006 c -1.51662,-0.13819 -3.0755,-0.26479 -4.67929,-0.3793 v 35.1777 c 0,0.55399 -0.44593,0.99993 -0.99994,0.99993 h -0.19999 c -0.55401,0 -0.99994,-0.44594 -0.99994,-0.99993 v -35.32653 c -1.51971,-0.0958 -3.08239,-0.18015 -4.6793,-0.25528 v 30.29014 c 0,0.55399 -0.44593,0.99993 -0.99994,0.99993 h -0.19999 c -0.5540097,0 -0.9999397,-0.44594 -0.9999397,-0.99993 v -30.38471 c -3.93991,-0.15836 -8.1009007,-0.2579 -12.5129304,-0.29146 z"
       id="path4595"
       inkscape:connector-curvature="0" />
    <path
       id="path5001"
       style="opacity:0.53299997;fill:none;stroke:#ff0000;stroke-width:3;stroke-linecap:round;stroke-linejoin:round;stroke-miterlimit:4;stroke-dasharray:none;stroke-opacity:1"
       d="m 47.914721,396.4562 h 15.88947 c 1.13861,0 2.05569,0.91656 2.05569,2.05516 v 0.88988 c 0,1.1386 -0.91708,2.05516 -2.05569,2.05516 h -15.88947 c -1.1386,0 -2.05517,-0.91656 -2.05517,-2.05516 v -0.88988 c 0,-1.1386 0.91657,-2.05516 2.05517,-2.05516 z m -42.9994397,0 H 20.804751 c 1.1386,0 2.05465,0.91656 2.05465,2.05516 v 0.88988 c 0,1.1386 -0.91605,2.05516 -2.05465,2.05516 H 4.9152813 c -1.1386107,0 -2.0551707,-0.91656 -2.0551707,-2.05516 v -0.88988 c 0,-1.1386 0.91656,-2.05516 2.0551707,-2.05516 z m -20.6674703,-4.99971 c -1.108,0 -1.99988,0.89189 -1.99988,1.99989 v 10.99984 c 0,1.108 0.89188,1.99987 1.99988,1.99987 h 6.1174603 c 0.0293,-0.52729 0.4593799,-0.94464 0.9942499,-0.94464 0.53487,0 0.9649,0.41735 0.99425,0.94464 H 33.365221 c 0.0293,-0.52729 0.45939,-0.94464 0.99426,-0.94464 0.53487,0 0.9649,0.41735 0.99425,0.94464 h 41.011454 c 0.0293,-0.52729 0.45939,-0.94464 0.99426,-0.94464 0.53486,0 0.96543,0.41735 0.99477,0.94464 h 6.117444 c 1.108,0 1.99988,-0.89187 1.99988,-1.99987 v -10.99984 c 0,-1.108 -0.89188,-1.99989 -1.99988,-1.99989 h -6.117444 c -0.0293,0.52729 -0.45991,0.94466 -0.99477,0.94466 -0.53487,0 -0.96491,-0.41737 -0.99426,-0.94466 H 35.353731 c -0.0293,0.52729 -0.45938,0.94466 -0.99425,0.94466 -0.53487,0 -0.96491,-0.41737 -0.99426,-0.94466 H -7.6462288 c -0.0293,0.52729 -0.45938,0.94466 -0.99425,0.94466 -0.53487,0 -0.9648999,-0.41737 -0.9942499,-0.94466 z"
       inkscape:connector-curvature="0" />
    <path
       style="color:#000000;font-style:normal;font-variant:normal;font-weight:normal;font-stretch:normal;font-size:medium;line-height:normal;font-family:sans-serif;font-variant-ligatures:normal;font-variant-position:normal;font-variant-caps:normal;font-variant-numeric:normal;font-variant-alternates:normal;font-feature-settings:normal;text-indent:0;text-align:start;text-decoration:none;text-decoration-line:none;text-decoration-style:solid;text-decoration-color:#000000;letter-spacing:normal;word-spacing:normal;text-transform:none;writing-mode:lr-tb;direction:ltr;text-orientation:mixed;dominant-baseline:auto;baseline-shift:baseline;text-anchor:start;white-space:normal;shape-padding:0;clip-rule:nonzero;display:inline;overflow:visible;visibility:visible;opacity:0.53299997;isolation:auto;mix-blend-mode:normal;color-interpolation:sRGB;color-interpolation-filters:linearRGB;solid-color:#000000;solid-opacity:1;vector-effect:none;fill:#0000ff;fill-opacity:1;fill-rule:nonzero;stroke:none;stroke-width:11.33858299;stroke-linecap:round;stroke-linejoin:round;stroke-miterlimit:4;stroke-dasharray:none;stroke-dashoffset:0;stroke-opacity:1;color-rendering:auto;image-rendering:auto;shape-rendering:auto;text-rendering:auto;enable-background:accumulate"
       d="M -411.88672 1207.4375 C -416.73672 1207.4375 -420.13672 1209.9308 -420.13672 1215.0645 L -420.13672 1227.3223 L -412.95508 1227.3223 C -412.32688 1227.3223 -411.82227 1227.8269 -411.82227 1228.4551 L -411.82227 1284.0156 C -411.82227 1284.6438 -412.32688 1285.1484 -412.95508 1285.1484 L -420.13672 1285.1484 L -420.13672 1340.707 L -412.95508 1340.707 C -412.32688 1340.707 -411.82227 1341.2137 -411.82227 1341.8418 L -411.82227 1397.4004 C -411.82227 1398.0285 -412.32688 1398.5352 -412.95508 1398.5352 L -420.13672 1398.5352 L -420.13672 1412.2324 C -420.13672 1416.8169 -417.45833 1419.6527 -412.64453 1419.5488 L -383.48633 1419.5488 L -383.48633 1412.3711 C -383.48633 1411.7429 -382.97976 1411.2383 -382.35156 1411.2383 L -326.79297 1411.2383 C -326.16489 1411.2383 -325.6582 1411.7429 -325.6582 1412.3711 L -325.6582 1419.5488 L -230.09961 1419.5488 L -230.09961 1412.3711 C -230.09961 1411.7429 -229.59492 1411.2383 -228.9668 1411.2383 L -173.4082 1411.2383 C -172.77993 1411.2383 -172.27344 1411.7429 -172.27344 1412.3711 L -172.27344 1419.5488 L -123.49414 1419.5488 C -121.24064 1419.5488 -120.13477 1418.3423 -120.13477 1416.2637 L -120.13477 1403.9551 L -127.31836 1403.9551 C -127.94655 1403.9551 -128.45117 1403.4504 -128.45117 1402.8223 L -128.45117 1347.2617 C -128.45117 1346.6335 -127.94655 1346.1289 -127.31836 1346.1289 L -120.13477 1346.1289 L -120.13477 1339.8359 C -120.13477 1301.2344 -132.10699 1268.6803 -174.2793 1245.5059 L -174.2793 1323.3789 C -174.2793 1325.4727 -175.96466 1327.1582 -178.05859 1327.1582 L -178.81445 1327.1582 C -180.90835 1327.1582 -182.59375 1325.4727 -182.59375 1323.3789 L -182.59375 1241.248 C -188.03612 1238.6496 -193.93052 1236.1902 -200.2793 1233.8652 L -200.2793 1343.3789 C -200.2793 1345.4727 -201.9647 1347.1582 -204.05859 1347.1582 L -204.81445 1347.1582 C -206.90835 1347.1582 -208.59375 1345.4727 -208.59375 1343.3789 L -208.59375 1230.9883 C -214.15495 1229.1711 -220.04837 1227.4516 -226.2793 1225.8301 L -226.2793 1363.3789 C -226.2793 1365.4727 -227.9647 1367.1582 -230.05859 1367.1582 L -230.81445 1367.1582 C -232.90831 1367.1582 -234.59375 1365.4727 -234.59375 1363.3789 L -234.59375 1223.7715 C -240.22306 1222.449 -246.11852 1221.2022 -252.2793 1220.0312 L -252.2793 1383.3789 C -252.2793 1385.4727 -253.96466 1387.1582 -256.05859 1387.1582 L -256.81445 1387.1582 C -258.90835 1387.1582 -260.59375 1385.4727 -260.59375 1383.3789 L -260.59375 1218.5273 C -266.27714 1217.5483 -272.15351 1216.623 -278.2793 1215.7676 L -278.2793 1383.3789 C -278.2793 1385.4727 -279.9647 1387.1582 -282.05859 1387.1582 L -282.81445 1387.1582 C -284.90835 1387.1582 -286.59375 1385.4727 -286.59375 1383.3789 L -286.59375 1214.6621 C -292.29687 1213.9415 -298.19978 1213.2772 -304.2793 1212.6602 L -304.2793 1363.3789 C -304.2793 1365.4727 -305.9647 1367.1582 -308.05859 1367.1582 L -308.81445 1367.1582 C -310.90831 1367.1582 -312.59375 1365.4727 -312.59375 1363.3789 L -312.59375 1211.8574 C -318.32586 1211.3351 -324.21773 1210.8566 -330.2793 1210.4238 L -330.2793 1343.3789 C -330.2793 1345.4727 -331.9647 1347.1582 -334.05859 1347.1582 L -334.81445 1347.1582 C -336.90835 1347.1582 -338.59375 1345.4727 -338.59375 1343.3789 L -338.59375 1209.8613 C -344.33753 1209.4992 -350.24373 1209.1804 -356.2793 1208.8965 L -356.2793 1323.3789 C -356.2793 1325.4727 -357.9647 1327.1582 -360.05859 1327.1582 L -360.81445 1327.1582 C -362.90835 1327.1582 -364.59375 1325.4727 -364.59375 1323.3789 L -364.59375 1208.5391 C -379.48476 1207.9405 -395.21133 1207.5643 -411.88672 1207.4375 z M -411.89453 1213.1035 L -411.88672 1213.1035 C -397.20564 1213.2158 -383.53438 1213.597 -370.26172 1214.0781 L -370.26172 1323.3809 C -370.26172 1328.517 -365.94866 1332.8301 -360.8125 1332.8301 L -360.05859 1332.8301 C -354.92244 1332.8301 -350.60937 1328.517 -350.60938 1323.3809 L -350.60938 1214.8828 C -348.47433 1214.9936 -346.35737 1215.1076 -344.26172 1215.2285 L -344.26172 1343.3789 C -344.26171 1348.515 -339.94865 1352.8281 -334.8125 1352.8281 L -334.06055 1352.8281 C -328.92439 1352.8281 -324.61133 1348.515 -324.61133 1343.3789 L -324.61133 1216.5723 C -322.47723 1216.7389 -320.35457 1216.9038 -318.26367 1217.082 L -318.26367 1363.375 C -318.26367 1368.5112 -313.95063 1372.8242 -308.81445 1372.8242 L -308.06055 1372.8242 C -302.92439 1372.8242 -298.61133 1368.5111 -298.61133 1363.375 L -298.61133 1219.0078 C -296.47431 1219.2418 -294.34953 1219.4772 -292.26367 1219.7246 L -292.26367 1383.3809 C -292.26367 1388.517 -287.95061 1392.8301 -282.81445 1392.8301 L -282.0625 1392.8301 C -276.92635 1392.8301 -272.61328 1388.517 -272.61328 1383.3809 L -272.61328 1222.3887 C -270.47833 1222.7133 -268.34417 1223.0383 -266.26562 1223.3789 L -266.26562 1383.3809 C -266.26562 1388.517 -261.95256 1392.8301 -256.81641 1392.8301 L -256.0625 1392.8301 C -250.92636 1392.8301 -246.61328 1388.5169 -246.61328 1383.3809 L -246.61328 1227.0254 C -244.47477 1227.4668 -242.33215 1227.9085 -240.26562 1228.3691 L -240.26562 1363.375 C -240.26562 1368.5112 -235.95258 1372.8242 -230.81641 1372.8242 L -230.05664 1372.8242 C -224.92048 1372.8242 -220.60742 1368.5111 -220.60742 1363.375 L -220.60742 1233.3887 C -218.47174 1233.9989 -216.31155 1234.5998 -214.26758 1235.2344 L -214.26758 1343.3789 C -214.26758 1348.515 -209.95452 1352.8281 -204.81836 1352.8281 L -204.05664 1352.8281 C -198.92049 1352.8281 -194.60938 1348.515 -194.60938 1343.3789 L -194.60938 1242.3711 C -192.47347 1243.2493 -190.26763 1244.1104 -188.25977 1245.0215 L -188.25977 1323.3809 C -188.25977 1328.517 -183.9467 1332.8301 -178.81055 1332.8301 L -178.05859 1332.8301 C -172.92246 1332.8301 -168.60938 1328.5169 -168.60938 1323.3809 L -168.60938 1255.7559 C -135.18155 1277.4043 -125.80273 1305.2432 -125.80273 1339.8359 L -125.80273 1340.4551 L -127.31641 1340.4551 C -130.98055 1340.4551 -134.12109 1343.5976 -134.12109 1347.2617 L -134.12109 1402.8242 C -134.12109 1406.4885 -130.981 1409.623 -127.31641 1409.623 L -125.80273 1409.623 L -125.80273 1413.875 L -166.60156 1413.875 L -166.60156 1412.3691 C -166.60156 1408.6935 -169.74435 1405.5704 -173.4082 1405.5703 L -228.96484 1405.5703 C -232.62928 1405.5703 -235.76953 1408.7044 -235.76953 1412.3691 L -235.76953 1413.875 L -319.99023 1413.875 L -319.99023 1412.3691 C -319.99023 1408.6923 -323.1323 1405.5704 -326.79688 1405.5703 L -382.35156 1405.5703 C -386.0157 1405.5703 -389.1582 1408.6931 -389.1582 1412.3691 L -389.1582 1413.875 L -412.64844 1413.875 A 5.6698583 5.6698583 0 0 0 -412.76562 1413.8828 C -414.03736 1413.9093 -414.16882 1413.6536 -414.18945 1413.6328 C -414.20835 1413.6139 -414.4707 1413.4188 -414.4707 1412.2305 L -414.4707 1404.2051 L -412.95703 1404.2051 C -409.28061 1404.2051 -406.15039 1401.0627 -406.15039 1397.3984 L -406.15039 1341.8438 C -406.15039 1338.1793 -409.28061 1335.0371 -412.95703 1335.0371 L -414.4707 1335.0371 L -414.4707 1290.8203 L -412.95703 1290.8203 C -409.29289 1290.8203 -406.15039 1287.6779 -406.15039 1284.0137 L -406.15039 1228.457 C -406.15039 1224.7927 -409.29267 1221.6504 -412.95703 1221.6504 L -414.4707 1221.6504 L -414.4707 1215.0664 C -414.4707 1213.7512 -414.26875 1213.7371 -414.11719 1213.6055 C -413.96601 1213.4743 -413.33824 1213.1058 -411.89453 1213.1035 z "
       transform="scale(0.26458333)"
       id="path4600" />
    <path
       sodipodi:nodetypes="ssssssssssssssssssccssscccccccccccccsssscc"
       inkscape:connector-curvature="0"
       d="m 47.914721,396.4562 h 15.88947 c 1.13861,0 2.05569,0.91656 2.05569,2.05516 v 0.88988 c 0,1.1386 -0.91708,2.05516 -2.05569,2.05516 h -15.88947 c -1.1386,0 -2.05517,-0.91656 -2.05517,-2.05516 v -0.88988 c 0,-1.1386 0.91657,-2.05516 2.05517,-2.05516 z m -42.99944,0 h 15.88947 c 1.1386,0 2.05465,0.91656 2.05465,2.05516 v 0.88988 c 0,1.1386 -0.91605,2.05516 -2.05465,2.05516 H 4.915281 c -1.13861,0 -2.05517,-0.91656 -2.05517,-2.05516 v -0.88988 c 0,-1.1386 0.91656,-2.05516 2.05517,-2.05516 z m -14.55001,-4.99971 h -6.11746 c -1.108,0 -1.99988,0.89189 -1.99988,1.99989 v 10.99984 c 0,1.108 0.89188,1.99987 1.99988,1.99987 h 6.11746 z m 1.9885,14.9996 h 41.01145 v -14.9996 h -41.01145 z m 42.99996,0 h 41.01145 v -14.9996 h -41.01145 z m 43.00048,0 h 6.117453 c 1.107998,0 1.999879,-0.89187 1.999879,-1.99987 v -10.99984 c 0,-1.108 -0.891881,-1.99989 -1.999879,-1.99989 h -6.117453 z"
       style="fill:none;stroke:#008000;stroke-width:3;stroke-opacity:1;stroke-miterlimit:4;stroke-dasharray:none;opacity:0.507"
       id="path4629" />
    <path
       sodipodi:nodetypes="ssssssssssssssssssccssscccccccccccccsssscc"
       inkscape:connector-curvature="0"
       d="m 47.914721,428.20622 h 15.88947 c 1.13861,0 2.05569,0.91656 2.05569,2.05516 v 0.88988 c 0,1.1386 -0.91708,2.05516 -2.05569,2.05516 h -15.88947 c -1.1386,0 -2.05517,-0.91656 -2.05517,-2.05516 v -0.88988 c 0,-1.1386 0.91657,-2.05516 2.05517,-2.05516 z m -42.99944,0 h 15.88947 c 1.1386,0 2.05465,0.91656 2.05465,2.05516 v 0.88988 c 0,1.1386 -0.91605,2.05516 -2.05465,2.05516 H 4.915281 c -1.13861,0 -2.05517,-0.91656 -2.05517,-2.05516 v -0.88988 c 0,-1.1386 0.91656,-2.05516 2.05517,-2.05516 z m -14.55001,-4.99971 h -6.11746 c -1.108,0 -1.99988,0.89189 -1.99988,1.99989 v 10.99984 c 0,1.108 0.89188,1.99987 1.99988,1.99987 h 6.11746 z m 1.9885,14.9996 h 41.01145 v -14.9996 h -41.01145 z m 42.99996,0 h 41.01145 v -14.9996 h -41.01145 z m 43.00048,0 h 6.117453 c 1.107998,0 1.999879,-0.89187 1.999879,-1.99987 V 425.2064 c 0,-1.108 -0.891881,-1.99989 -1.999879,-1.99989 h -6.117453 z"
       style="fill:#800000;stroke:none;stroke-width:0.05;stroke-opacity:1"
       id="path4631" />
    <path
       style="color:#000000;font-style:normal;font-variant:normal;font-weight:normal;font-stretch:normal;font-size:medium;line-height:normal;font-family:sans-serif;font-variant-ligatures:normal;font-variant-position:normal;font-variant-caps:normal;font-variant-numeric:normal;font-variant-alternates:normal;font-feature-settings:normal;text-indent:0;text-align:start;text-decoration:none;text-decoration-line:none;text-decoration-style:solid;text-decoration-color:#000000;letter-spacing:normal;word-spacing:normal;text-transform:none;writing-mode:lr-tb;direction:ltr;text-orientation:mixed;dominant-baseline:auto;baseline-shift:baseline;text-anchor:start;white-space:normal;shape-padding:0;clip-rule:nonzero;display:inline;overflow:visible;visibility:visible;opacity:0.53299997;isolation:auto;mix-blend-mode:normal;color-interpolation:sRGB;color-interpolation-filters:linearRGB;solid-color:#000000;solid-opacity:1;vector-effect:none;fill:#ff0000;fill-opacity:1;fill-rule:nonzero;stroke:none;stroke-width:3;stroke-linecap:round;stroke-linejoin:round;stroke-miterlimit:4;stroke-dasharray:none;stroke-dashoffset:0;stroke-opacity:1;color-rendering:auto;image-rendering:auto;shape-rendering:auto;text-rendering:auto;enable-background:accumulate"
       d="m -15.75201,444.37339 c -1.108,0 -1.999878,0.89188 -1.999878,1.99988 v 10.99984 c 0,1.10799 0.891878,1.99988 1.999878,1.99988 h 6.1174562 v -2.19263 -10.61434 -2.19263 z m 8.105965,0 v 2.1921 10.61537 2.19213 h 41.01145 v -2.19263 -10.61434 -2.19263 z m 42.999958,0 v 2.1921 10.61537 2.19213 h 41.011451 v -2.19263 -10.61434 -2.19263 z m 43.000477,0 v 2.1921 10.61537 2.19213 h 6.117455 c 1.107998,0 1.99988,-0.89189 1.99988,-1.99988 v -10.99984 c 0,-1.108 -0.891882,-1.99988 -1.99988,-1.99988 z m -94.1064,1.49966 h 4.617289 v 11.99978 h -4.617289 c -0.303063,0 -0.499711,-0.19667 -0.499711,-0.49972 v -10.99984 c 0,-0.0379 0.0028,-0.0741 0.0088,-0.10853 0.04179,-0.24075 0.225762,-0.39169 0.490926,-0.39169 z m 9.6056152,0 H 31.865239 v 11.99978 H -6.1463948 Z m 42.9999578,0 h 38.011634 v 11.99978 H 36.853563 Z m 42.999959,0 h 4.617291 c 0.303041,0 0.499711,0.19716 0.499711,0.50022 v 10.99984 c 0,0.26516 -0.150524,0.44913 -0.391192,0.49093 -0.03438,0.006 -0.07064,0.009 -0.108519,0.009 H 79.853522 Z M 4.9159789,447.8729 c -1.9435916,0 -3.556372,1.61126 -3.556372,3.55484 v 0.89037 c 0,1.9436 1.6127804,3.55484 3.556372,3.55484 H 20.804931 c 1.943588,0 3.554305,-1.61169 3.554305,-3.55484 v -0.89037 c 0,-1.94316 -1.610717,-3.55484 -3.554305,-3.55484 z m 42.9978921,0 c -1.943589,0 -3.554306,1.61123 -3.554306,3.55484 v 0.89037 c 0,1.9436 1.610717,3.55484 3.554306,3.55484 h 15.891018 c 1.943592,0 3.554307,-1.61079 3.554307,-3.55484 v -0.89037 c 0,-1.94406 -1.610715,-3.55484 -3.554307,-3.55484 z M 4.9154622,449.37309 H 20.804931 c 1.1386,0 2.054655,0.91657 2.054655,2.05515 v 0.88987 c 0,1.13861 -0.916055,2.05518 -2.054655,2.05518 H 4.9154622 c -1.13861,0 -2.0551717,-0.91657 -2.0551717,-2.05518 v -0.88987 c 0,-1.13858 0.9165617,-2.05515 2.0551717,-2.05515 z m 42.9994408,0 h 15.88947 c 1.138611,0 2.055688,0.91657 2.055688,2.05515 v 0.88987 c 0,1.13861 -0.917077,2.05518 -2.055688,2.05518 h -15.88947 c -1.1386,0 -2.055169,-0.91657 -2.055172,-2.05518 v -0.88987 c 0,-1.13858 0.916572,-2.05515 2.055172,-2.05515 z"
       id="path4633"
       inkscape:connector-curvature="0" />
    <path
       id="path4633-3"
       style="color:#000000;font-style:normal;font-variant:normal;font-weight:normal;font-stretch:normal;font-size:medium;line-height:normal;font-family:sans-serif;font-variant-ligatures:normal;font-variant-position:normal;font-variant-caps:normal;font-variant-numeric:normal;font-variant-alternates:normal;font-feature-settings:normal;text-indent:0;text-align:start;text-decoration:none;text-decoration-line:none;text-decoration-style:solid;text-decoration-color:#000000;letter-spacing:normal;word-spacing:normal;text-transform:none;writing-mode:lr-tb;direction:ltr;text-orientation:mixed;dominant-baseline:auto;baseline-shift:baseline;text-anchor:start;white-space:normal;shape-padding:0;clip-rule:nonzero;display:inline;overflow:visible;visibility:visible;opacity:0.53299997;isolation:auto;mix-blend-mode:normal;color-interpolation:sRGB;color-interpolation-filters:linearRGB;solid-color:#000000;solid-opacity:1;vector-effect:none;fill:#ff0000;fill-opacity:1;fill-rule:nonzero;stroke:none;stroke-width:3;stroke-linecap:round;stroke-linejoin:round;stroke-miterlimit:4;stroke-dasharray:none;stroke-dashoffset:0;stroke-opacity:1;color-rendering:auto;image-rendering:auto;shape-rendering:auto;text-rendering:auto;enable-background:accumulate"
       d="m -61.356724,497.19812 c -1.108,0 -1.999878,0.89188 -1.999878,1.99988 0,3.66661 0,7.33322 0,10.99984 0,1.10799 0.891878,1.99988 1.999878,1.99988 2.039152,0 4.078304,0 6.117456,0 0,-4.99987 0,-9.99974 0,-14.9996 -2.039152,0 -4.078304,0 -6.117456,0 z m 0.529167,1.49966 c 1.362707,0 2.725415,0 4.088122,0 0,3.99992 0,7.99985 0,11.99978 -1.539096,0 -3.078193,0 -4.617289,0 -0.303063,0 -0.499711,-0.19667 -0.499711,-0.49972 0,-3.66662 0,-7.33323 0,-10.99984 0,-0.0379 0.0028,-0.0741 0.0088,-0.10853 0.04179,-0.24075 0.225762,-0.39169 0.490926,-0.39169 0.176384,0 0.352768,0 0.529152,0 z m 93.577234,-1.49966 c 0,4.99986 0,9.99973 0,14.9996 2.039152,0 4.078301,0 6.117451,0 1.108,0 1.99989,-0.89189 1.99989,-1.99988 0,-3.66662 0,-7.33323 0,-10.99984 0,-1.108 -0.89189,-1.99988 -1.99989,-1.99988 -2.03915,0 -4.078299,0 -6.117451,0 z m 1.499132,1.49966 c 1.539097,0 3.078199,0 4.617289,0 0.30305,0 0.49972,0.19716 0.49972,0.50022 0,3.66661 0,7.33322 0,10.99984 0,0.26516 -0.15053,0.44913 -0.3912,0.49093 -0.0344,0.006 -0.0706,0.009 -0.10852,0.009 -1.53909,0 -3.078192,0 -4.617289,0 0,-4 0,-8 0,-11.99999 z m -87.499568,-1.49966 c 0,4.99986 0,9.99973 0,14.9996 13.670484,0 27.340967,0 41.011451,0 0,-4.99987 0,-9.99974 0,-14.9996 -13.670484,0 -27.340967,0 -41.011451,0 z m 1.49965,1.49966 c 12.670545,0 25.34109,0 38.011634,0 0,3.99992 0,7.99985 0,11.99978 -12.670544,0 -25.341089,0 -38.011634,0 0,-3.99993 0,-7.99986 0,-11.99978 z m 41.500311,-1.49966 c 0,4.99986 0,9.99973 0,14.9996 13.6704843,0 27.340968,0 41.011451,0 0,-4.99987 0,-9.99974 0,-14.9996 -13.670483,0 -27.3409667,0 -41.011451,0 z m 1.4996503,1.49966 c 12.670547,0 25.3410907,0 38.0116347,0 0,3.99992 0,7.99985 0,11.99978 -12.670544,0 -25.3410877,0 -38.0116347,0 0,-3.99993 0,-7.99986 0,-11.99978 z m -31.9376003,1.99986 c -1.943592,0 -3.556372,1.61125 -3.556372,3.55484 0,0.29679 0,0.59358 0,0.89037 0,1.94359 1.61278,3.55483 3.556372,3.55483 5.296318,0 10.592636,0 15.888952,0 1.943589,0 3.554306,-1.61168 3.554306,-3.55483 0,-0.29679 0,-0.59358 0,-0.89037 0,-1.94316 -1.610717,-3.55484 -3.554306,-3.55484 -5.296316,0 -10.592634,0 -15.888952,0 z m -5.02e-4,1.50018 c 5.29649,0 10.59298,0 15.889467,0 1.1386,0 2.054656,0.91658 2.054656,2.05515 0,0.29662 0,0.59325 0,0.88988 0,1.1386 -0.916056,2.05518 -2.054656,2.05518 -5.296487,0 -10.592977,0 -15.889468,0 -1.138612,0 -2.055173,-0.91658 -2.055173,-2.05518 0,-0.29663 0,-0.59326 0,-0.88988 0,-1.13857 0.916561,-2.05515 2.055174,-2.05515 z m 42.9983423,-1.50018 c -1.94359202,0 -3.554315,1.61123 -3.554315,3.55484 0,0.29679 0,0.59358 0,0.89037 0,1.94359 1.61072298,3.55483 3.554315,3.55483 5.297006,0 10.5940117,0 15.8910177,0 1.943589,0 3.554304,-1.61078 3.554304,-3.55483 0,-0.29679 0,-0.59358 0,-0.89037 0,-1.94407 -1.610715,-3.55484 -3.554304,-3.55484 -5.297006,0 -10.5940117,0 -15.8910177,0 z m 0.0011,1.50018 c 5.29649,0 10.5929797,0 15.8894697,0 1.138611,0 2.055688,0.91658 2.055688,2.05515 0,0.29662 0,0.59325 0,0.88988 0,1.1386 -0.917077,2.05518 -2.055688,2.05518 -5.29649,0 -10.5929797,0 -15.8894697,0 -1.1386,0 -2.05516902,-0.91658 -2.05517202,-2.05518 0,-0.29663 0,-0.59326 0,-0.88988 0,-1.13857 0.91657202,-2.05515 2.05517202,-2.05515 z"
       inkscape:connector-curvature="0"
       sodipodi:nodetypes="ssssccscccssscscccssssccssscsccccccccccccccccccccccssssssssssssssssssssssssssssssssscss" />
    <rect
       style="opacity:1;fill:#ff0000;fill-opacity:0.66666667;stroke:none;stroke-width:0.65625;stroke-linecap:round;stroke-linejoin:round;stroke-miterlimit:4;stroke-dasharray:none;stroke-dashoffset:0;stroke-opacity:1"
       id="rect4720"
       width="2"
       height="20"
       x="99.513947"
       y="207.10411" />
    <rect
       y="207.10411"
       x="56.513931"
       height="20"
       width="2"
       id="rect4722"
       style="opacity:1;fill:#ff0000;fill-opacity:0.66666667;stroke:none;stroke-width:0.65625;stroke-linecap:round;stroke-linejoin:round;stroke-miterlimit:4;stroke-dasharray:none;stroke-dashoffset:0;stroke-opacity:1" />
    <rect
       style="opacity:1;fill:#ff0000;fill-opacity:0.66666667;stroke:none;stroke-width:0.65625;stroke-linecap:round;stroke-linejoin:round;stroke-miterlimit:4;stroke-dasharray:none;stroke-dashoffset:0;stroke-opacity:1"
       id="rect4724"
       width="2"
       height="20"
       x="142.51395"
       y="207.10411" />
  </g>
</svg>
